<mxfile host="app.diagrams.net" modified="2024-04-15T16:14:41.944Z" agent="Mozilla/5.0 (Windows NT 10.0; Win64; x64) AppleWebKit/537.36 (KHTML, like Gecko) Chrome/123.0.0.0 Safari/537.36" etag="Ire9ADqvncq-KR6NBevj" version="24.0.7" type="device">
  <diagram name="Page-1" id="Fyjw3lSKPRfceUW5DVw9">
    <mxGraphModel dx="1381" dy="2885" grid="1" gridSize="10" guides="1" tooltips="1" connect="1" arrows="1" fold="1" page="1" pageScale="1" pageWidth="850" pageHeight="1100" math="0" shadow="0">
      <root>
        <mxCell id="0" />
        <mxCell id="1" parent="0" />
        <mxCell id="1bp27MTQ7zRGK-JUnbW6-1" value="&lt;font style=&quot;font-size: 30px;&quot;&gt;Level 1&lt;/font&gt;" style="text;strokeColor=none;fillColor=none;html=1;align=center;verticalAlign=middle;whiteSpace=wrap;rounded=0;fontSize=16;fontStyle=1" parent="1" vertex="1">
          <mxGeometry x="303" y="-1280" width="137" height="49" as="geometry" />
        </mxCell>
        <mxCell id="1bp27MTQ7zRGK-JUnbW6-18" style="edgeStyle=orthogonalEdgeStyle;rounded=0;orthogonalLoop=1;jettySize=auto;html=1;exitX=0;exitY=0.5;exitDx=0;exitDy=0;entryX=1;entryY=0.5;entryDx=0;entryDy=0;" parent="1" target="1bp27MTQ7zRGK-JUnbW6-31" edge="1">
          <mxGeometry relative="1" as="geometry">
            <mxPoint x="709" y="-1013" as="sourcePoint" />
          </mxGeometry>
        </mxCell>
        <mxCell id="1bp27MTQ7zRGK-JUnbW6-20" style="edgeStyle=orthogonalEdgeStyle;rounded=0;orthogonalLoop=1;jettySize=auto;html=1;exitX=0;exitY=0.5;exitDx=0;exitDy=0;entryX=1;entryY=0.5;entryDx=0;entryDy=0;" parent="1" source="1bp27MTQ7zRGK-JUnbW6-21" target="1bp27MTQ7zRGK-JUnbW6-31" edge="1">
          <mxGeometry relative="1" as="geometry" />
        </mxCell>
        <mxCell id="1bp27MTQ7zRGK-JUnbW6-21" value="Drug Interation" style="shape=process;whiteSpace=wrap;align=center;verticalAlign=middle;size=0.0475;fontStyle=1;strokeWidth=3;fillColor=default;" parent="1" vertex="1">
          <mxGeometry x="710" y="-927.5" width="140" height="21" as="geometry" />
        </mxCell>
        <mxCell id="1bp27MTQ7zRGK-JUnbW6-22" style="edgeStyle=orthogonalEdgeStyle;rounded=0;orthogonalLoop=1;jettySize=auto;html=1;exitX=0;exitY=0.5;exitDx=0;exitDy=0;entryX=1;entryY=0.5;entryDx=0;entryDy=0;" parent="1" source="1bp27MTQ7zRGK-JUnbW6-23" target="1bp27MTQ7zRGK-JUnbW6-31" edge="1">
          <mxGeometry relative="1" as="geometry" />
        </mxCell>
        <mxCell id="1bp27MTQ7zRGK-JUnbW6-23" value="Food Interaction" style="shape=process;whiteSpace=wrap;align=center;verticalAlign=middle;size=0.0475;fontStyle=1;strokeWidth=3;fillColor=default;" parent="1" vertex="1">
          <mxGeometry x="710" y="-954.5" width="140" height="23" as="geometry" />
        </mxCell>
        <mxCell id="1bp27MTQ7zRGK-JUnbW6-24" style="edgeStyle=orthogonalEdgeStyle;rounded=0;orthogonalLoop=1;jettySize=auto;html=1;exitX=0;exitY=0.5;exitDx=0;exitDy=0;entryX=1;entryY=0.5;entryDx=0;entryDy=0;" parent="1" source="1bp27MTQ7zRGK-JUnbW6-25" target="1bp27MTQ7zRGK-JUnbW6-31" edge="1">
          <mxGeometry relative="1" as="geometry" />
        </mxCell>
        <mxCell id="1bp27MTQ7zRGK-JUnbW6-25" value="Product" style="shape=process;whiteSpace=wrap;align=center;verticalAlign=middle;size=0.0475;fontStyle=1;strokeWidth=3;fillColor=default;" parent="1" vertex="1">
          <mxGeometry x="710" y="-1004" width="140" height="24" as="geometry" />
        </mxCell>
        <mxCell id="1bp27MTQ7zRGK-JUnbW6-26" style="edgeStyle=orthogonalEdgeStyle;rounded=0;orthogonalLoop=1;jettySize=auto;html=1;exitX=0;exitY=0.5;exitDx=0;exitDy=0;entryX=1;entryY=0.5;entryDx=0;entryDy=0;" parent="1" source="1bp27MTQ7zRGK-JUnbW6-27" target="1bp27MTQ7zRGK-JUnbW6-31" edge="1">
          <mxGeometry relative="1" as="geometry" />
        </mxCell>
        <mxCell id="1bp27MTQ7zRGK-JUnbW6-27" value="Price" style="shape=process;whiteSpace=wrap;align=center;verticalAlign=middle;size=0.0475;fontStyle=1;strokeWidth=3;fillColor=default;" parent="1" vertex="1">
          <mxGeometry x="710" y="-978" width="140" height="23" as="geometry" />
        </mxCell>
        <mxCell id="1bp27MTQ7zRGK-JUnbW6-29" value="Drug" style="shape=process;whiteSpace=wrap;align=center;verticalAlign=middle;size=0.0475;fontStyle=1;strokeWidth=3;fillColor=none;" parent="1" vertex="1">
          <mxGeometry x="710" y="-1029.5" width="140" height="25.5" as="geometry" />
        </mxCell>
        <mxCell id="1bp27MTQ7zRGK-JUnbW6-30" style="edgeStyle=orthogonalEdgeStyle;rounded=0;orthogonalLoop=1;jettySize=auto;html=1;exitX=0.5;exitY=1;exitDx=0;exitDy=0;" parent="1" source="1bp27MTQ7zRGK-JUnbW6-31" target="1bp27MTQ7zRGK-JUnbW6-33" edge="1">
          <mxGeometry relative="1" as="geometry" />
        </mxCell>
        <mxCell id="1bp27MTQ7zRGK-JUnbW6-31" value="&lt;p style=&quot;margin: 0px; margin-top: 4px; text-align: center; text-decoration: underline;&quot;&gt;&lt;strong&gt;Process 2&lt;br&gt;&lt;/strong&gt;&lt;/p&gt;&lt;hr&gt;&lt;p style=&quot;margin: 0px; margin-left: 8px;&quot;&gt;&lt;span style=&quot;text-wrap: wrap; background-color: initial;&quot;&gt;API DrugBank (&lt;/span&gt;Generate API)&lt;/p&gt;" style="verticalAlign=middle;align=center;overflow=fill;fontSize=12;fontFamily=Helvetica;html=1;rounded=1;fontStyle=1;strokeWidth=3;fillColor=default;" parent="1" vertex="1">
          <mxGeometry x="464.5" y="-1010" width="110" height="80" as="geometry" />
        </mxCell>
        <mxCell id="1bp27MTQ7zRGK-JUnbW6-33" value="&lt;p style=&quot;margin: 0px; margin-top: 4px; text-align: center; text-decoration: underline;&quot;&gt;&lt;strong&gt;&lt;strong&gt;Process&lt;/strong&gt; 3&lt;br&gt;&lt;/strong&gt;&lt;/p&gt;&lt;hr&gt;&lt;p style=&quot;margin: 0px; margin-left: 8px;&quot;&gt;ETL&lt;/p&gt;" style="verticalAlign=middle;align=center;overflow=fill;fontSize=12;fontFamily=Helvetica;html=1;rounded=1;fontStyle=1;strokeWidth=3;fillColor=default;" parent="1" vertex="1">
          <mxGeometry x="463" y="-850" width="114.5" height="70" as="geometry" />
        </mxCell>
        <mxCell id="1bp27MTQ7zRGK-JUnbW6-36" style="edgeStyle=orthogonalEdgeStyle;rounded=0;orthogonalLoop=1;jettySize=auto;html=1;exitX=0.5;exitY=1;exitDx=0;exitDy=0;" parent="1" source="1bp27MTQ7zRGK-JUnbW6-37" target="1bp27MTQ7zRGK-JUnbW6-31" edge="1">
          <mxGeometry relative="1" as="geometry" />
        </mxCell>
        <mxCell id="1bp27MTQ7zRGK-JUnbW6-37" value="&lt;p style=&quot;margin: 0px; margin-top: 4px; text-align: center; text-decoration: underline;&quot;&gt;&lt;strong&gt;Process 1&lt;br&gt;&lt;/strong&gt;&lt;/p&gt;&lt;hr&gt;&lt;p style=&quot;margin: 0px; margin-left: 8px;&quot;&gt;Request Drug&amp;nbsp;&lt;/p&gt;&lt;p style=&quot;margin: 0px; margin-left: 8px;&quot;&gt;Report&lt;/p&gt;" style="verticalAlign=middle;align=center;overflow=fill;fontSize=12;fontFamily=Helvetica;html=1;rounded=1;fontStyle=1;strokeWidth=3;fillColor=default;" parent="1" vertex="1">
          <mxGeometry x="453" y="-1177" width="133" height="81" as="geometry" />
        </mxCell>
        <mxCell id="1bp27MTQ7zRGK-JUnbW6-38" style="edgeStyle=orthogonalEdgeStyle;rounded=0;orthogonalLoop=1;jettySize=auto;html=1;exitX=1;exitY=0.5;exitDx=0;exitDy=0;entryX=0;entryY=0.5;entryDx=0;entryDy=0;" parent="1" source="1bp27MTQ7zRGK-JUnbW6-39" target="1bp27MTQ7zRGK-JUnbW6-37" edge="1">
          <mxGeometry relative="1" as="geometry" />
        </mxCell>
        <mxCell id="1bp27MTQ7zRGK-JUnbW6-39" value="WHO (World Health Organization)" style="whiteSpace=wrap;align=center;verticalAlign=middle;fontStyle=1;strokeWidth=3;fillColor=default;" parent="1" vertex="1">
          <mxGeometry x="74" y="-1175" width="131" height="78" as="geometry" />
        </mxCell>
        <mxCell id="1bp27MTQ7zRGK-JUnbW6-40" value="Requests data" style="text;html=1;align=center;verticalAlign=middle;resizable=0;points=[];autosize=1;strokeColor=none;fillColor=none;" parent="1" vertex="1">
          <mxGeometry x="322" y="-1170" width="100" height="30" as="geometry" />
        </mxCell>
        <mxCell id="1bp27MTQ7zRGK-JUnbW6-42" value="Retrieves &lt;br&gt;&amp;nbsp;data" style="text;html=1;align=center;verticalAlign=middle;resizable=0;points=[];autosize=1;strokeColor=none;fillColor=none;" parent="1" vertex="1">
          <mxGeometry x="444" y="-1069.5" width="70" height="40" as="geometry" />
        </mxCell>
        <mxCell id="1bp27MTQ7zRGK-JUnbW6-44" style="edgeStyle=orthogonalEdgeStyle;rounded=0;orthogonalLoop=1;jettySize=auto;html=1;exitX=0;exitY=0.5;exitDx=0;exitDy=0;" parent="1" source="1bp27MTQ7zRGK-JUnbW6-50" target="1bp27MTQ7zRGK-JUnbW6-39" edge="1">
          <mxGeometry relative="1" as="geometry" />
        </mxCell>
        <mxCell id="1bp27MTQ7zRGK-JUnbW6-46" value="View user interface&lt;br&gt;(View interaction prediction results)&lt;div&gt;&lt;br/&gt;&lt;/div&gt;" style="edgeLabel;html=1;align=center;verticalAlign=middle;resizable=0;points=[];" parent="1bp27MTQ7zRGK-JUnbW6-44" vertex="1" connectable="0">
          <mxGeometry x="-0.1129" y="1" relative="1" as="geometry">
            <mxPoint x="11" y="-143" as="offset" />
          </mxGeometry>
        </mxCell>
        <mxCell id="1bp27MTQ7zRGK-JUnbW6-47" value="Sends the prediction&lt;br style=&quot;border-color: var(--border-color);&quot;&gt;&amp;nbsp;modell&amp;nbsp;" style="edgeLabel;html=1;align=center;verticalAlign=middle;resizable=0;points=[];" parent="1bp27MTQ7zRGK-JUnbW6-44" vertex="1" connectable="0">
          <mxGeometry x="-0.0121" y="-1" relative="1" as="geometry">
            <mxPoint x="3" y="-167" as="offset" />
          </mxGeometry>
        </mxCell>
        <mxCell id="yrdK_d2aPB04I4Tzec2i-1" value="Text" style="edgeLabel;html=1;align=center;verticalAlign=middle;resizable=0;points=[];" parent="1bp27MTQ7zRGK-JUnbW6-44" vertex="1" connectable="0">
          <mxGeometry x="0.26" y="-7" relative="1" as="geometry">
            <mxPoint as="offset" />
          </mxGeometry>
        </mxCell>
        <mxCell id="1bp27MTQ7zRGK-JUnbW6-48" style="edgeStyle=orthogonalEdgeStyle;rounded=0;orthogonalLoop=1;jettySize=auto;html=1;exitX=0.5;exitY=1;exitDx=0;exitDy=0;" parent="1" source="1bp27MTQ7zRGK-JUnbW6-49" target="1bp27MTQ7zRGK-JUnbW6-50" edge="1">
          <mxGeometry relative="1" as="geometry" />
        </mxCell>
        <mxCell id="1bp27MTQ7zRGK-JUnbW6-50" value="&lt;p style=&quot;margin: 0px; margin-top: 4px; text-align: center; text-decoration: underline;&quot;&gt;&lt;strong&gt;&lt;strong&gt;Process&lt;/strong&gt; 5&lt;br&gt;&lt;/strong&gt;&lt;/p&gt;&lt;hr&gt;&lt;p style=&quot;margin: 0px; margin-left: 8px;&quot;&gt;Reports&lt;/p&gt;" style="verticalAlign=middle;align=center;overflow=fill;fontSize=12;fontFamily=Helvetica;html=1;rounded=1;fontStyle=1;strokeWidth=3;fillColor=default;" parent="1" vertex="1">
          <mxGeometry x="280" y="-620" width="90" height="60" as="geometry" />
        </mxCell>
        <mxCell id="1bp27MTQ7zRGK-JUnbW6-51" value="&lt;font style=&quot;font-size: 30px;&quot;&gt;&lt;b&gt;Level 0 DFD&lt;/b&gt;&lt;/font&gt;" style="text;strokeColor=none;fillColor=none;html=1;align=center;verticalAlign=middle;whiteSpace=wrap;rounded=0;fontSize=16;" parent="1" vertex="1">
          <mxGeometry x="306.75" y="-2000" width="176.5" height="58" as="geometry" />
        </mxCell>
        <mxCell id="1bp27MTQ7zRGK-JUnbW6-52" value="Retrieves &#xa;updates" style="text;spacingTop=-5;align=center" parent="1" vertex="1">
          <mxGeometry x="252" y="-1802" width="104" height="37" as="geometry" />
        </mxCell>
        <mxCell id="1bp27MTQ7zRGK-JUnbW6-53" value="Request drug data" style="text;spacingTop=-5;align=center" parent="1" vertex="1">
          <mxGeometry x="257" y="-1593.5" width="76" height="20" as="geometry" />
        </mxCell>
        <mxCell id="1bp27MTQ7zRGK-JUnbW6-54" value="Request data" style="text;html=1;align=center;verticalAlign=middle;resizable=0;points=[];autosize=1;strokeColor=none;fillColor=none;" parent="1" vertex="1">
          <mxGeometry x="444" y="-1802" width="90" height="30" as="geometry" />
        </mxCell>
        <mxCell id="1bp27MTQ7zRGK-JUnbW6-55" value="API DrugBank" style="whiteSpace=wrap;align=center;verticalAlign=middle;fontStyle=1;strokeWidth=3;fillColor=none;" parent="1" vertex="1">
          <mxGeometry x="333" y="-1895" width="124" height="60" as="geometry" />
        </mxCell>
        <mxCell id="1bp27MTQ7zRGK-JUnbW6-56" style="edgeStyle=none;curved=1;rounded=0;orthogonalLoop=1;jettySize=auto;html=1;exitX=0.75;exitY=0;exitDx=0;exitDy=0;fontSize=12;startSize=8;endSize=8;" parent="1" source="1bp27MTQ7zRGK-JUnbW6-57" edge="1">
          <mxGeometry relative="1" as="geometry">
            <mxPoint x="432" y="-1832" as="targetPoint" />
          </mxGeometry>
        </mxCell>
        <mxCell id="1bp27MTQ7zRGK-JUnbW6-57" value="&lt;p style=&quot;margin: 0px; margin-top: 4px; text-align: center; text-decoration: underline;&quot;&gt;&lt;strong&gt;Process 1&lt;br&gt;&lt;/strong&gt;&lt;/p&gt;&lt;hr&gt;&lt;p style=&quot;margin: 0px; margin-left: 8px;&quot;&gt;DrugBank Reporting&amp;nbsp;&lt;/p&gt;&lt;p style=&quot;margin: 0px; margin-left: 8px;&quot;&gt;System&lt;/p&gt;" style="verticalAlign=middle;align=center;overflow=fill;fontSize=12;fontFamily=Helvetica;html=1;rounded=1;fontStyle=1;strokeWidth=3;fillColor=none;" parent="1" vertex="1">
          <mxGeometry x="338" y="-1727" width="125" height="90" as="geometry" />
        </mxCell>
        <mxCell id="1bp27MTQ7zRGK-JUnbW6-58" style="edgeStyle=none;curved=1;rounded=0;orthogonalLoop=1;jettySize=auto;html=1;exitX=0.25;exitY=1;exitDx=0;exitDy=0;entryX=0.2;entryY=0.022;entryDx=0;entryDy=0;entryPerimeter=0;fontSize=12;startSize=8;endSize=8;" parent="1" source="1bp27MTQ7zRGK-JUnbW6-55" target="1bp27MTQ7zRGK-JUnbW6-57" edge="1">
          <mxGeometry relative="1" as="geometry" />
        </mxCell>
        <mxCell id="1bp27MTQ7zRGK-JUnbW6-59" style="edgeStyle=none;curved=1;rounded=0;orthogonalLoop=1;jettySize=auto;html=1;exitX=0.25;exitY=0;exitDx=0;exitDy=0;fontSize=12;startSize=8;endSize=8;" parent="1" source="1bp27MTQ7zRGK-JUnbW6-60" edge="1">
          <mxGeometry relative="1" as="geometry">
            <mxPoint x="364" y="-1634" as="targetPoint" />
          </mxGeometry>
        </mxCell>
        <mxCell id="1bp27MTQ7zRGK-JUnbW6-60" value="WHO" style="whiteSpace=wrap;align=center;verticalAlign=middle;fontStyle=1;strokeWidth=3;fillColor=none;" parent="1" vertex="1">
          <mxGeometry x="330" y="-1521" width="127" height="51" as="geometry" />
        </mxCell>
        <mxCell id="1bp27MTQ7zRGK-JUnbW6-61" style="edgeStyle=none;curved=1;rounded=0;orthogonalLoop=1;jettySize=auto;html=1;exitX=0.75;exitY=1;exitDx=0;exitDy=0;fontSize=12;startSize=8;endSize=8;" parent="1" source="1bp27MTQ7zRGK-JUnbW6-57" edge="1">
          <mxGeometry relative="1" as="geometry">
            <mxPoint x="429" y="-1521" as="targetPoint" />
          </mxGeometry>
        </mxCell>
        <mxCell id="1bp27MTQ7zRGK-JUnbW6-62" value="&lt;font style=&quot;font-size: 13px;&quot;&gt;Final DrugBank Report&lt;/font&gt;&lt;br style=&quot;border-color: var(--border-color); font-size: 12px;&quot;&gt;&lt;span style=&quot;font-size: 12px;&quot;&gt;(prediction model, dashboards etc.)&lt;/span&gt;" style="text;strokeColor=none;fillColor=none;html=1;align=center;verticalAlign=middle;whiteSpace=wrap;rounded=0;fontSize=16;" parent="1" vertex="1">
          <mxGeometry x="452" y="-1617" width="199" height="67" as="geometry" />
        </mxCell>
        <mxCell id="yrdK_d2aPB04I4Tzec2i-2" value="" style="edgeStyle=orthogonalEdgeStyle;rounded=0;orthogonalLoop=1;jettySize=auto;html=1;exitX=0;exitY=0.5;exitDx=0;exitDy=0;" parent="1" source="1bp27MTQ7zRGK-JUnbW6-33" target="1bp27MTQ7zRGK-JUnbW6-49" edge="1">
          <mxGeometry relative="1" as="geometry">
            <mxPoint x="465" y="-805" as="sourcePoint" />
            <mxPoint x="334" y="-703" as="targetPoint" />
          </mxGeometry>
        </mxCell>
        <mxCell id="1bp27MTQ7zRGK-JUnbW6-49" value="&lt;p style=&quot;margin: 0px; margin-top: 4px; text-align: center; text-decoration: underline;&quot;&gt;&lt;strong&gt;&lt;strong&gt;Process&lt;/strong&gt;&amp;nbsp;4&lt;br&gt;&lt;/strong&gt;&lt;/p&gt;&lt;hr&gt;&lt;p style=&quot;margin: 0px; margin-left: 8px;&quot;&gt;Modelling&lt;/p&gt;" style="verticalAlign=middle;align=center;overflow=fill;fontSize=12;fontFamily=Helvetica;html=1;rounded=1;fontStyle=1;strokeWidth=3;fillColor=default;" parent="1" vertex="1">
          <mxGeometry x="280" y="-750" width="90" height="60" as="geometry" />
        </mxCell>
        <mxCell id="Mr7yQ8EFK5zv3oP72VbV-1" value="From API&lt;div&gt;&amp;nbsp;DataStore&lt;/div&gt;" style="text;html=1;align=center;verticalAlign=middle;resizable=0;points=[];autosize=1;strokeColor=none;fillColor=none;" vertex="1" parent="1">
          <mxGeometry x="625" y="-1059.5" width="80" height="40" as="geometry" />
        </mxCell>
        <mxCell id="Mr7yQ8EFK5zv3oP72VbV-2" value="Drug Interation" style="shape=process;whiteSpace=wrap;align=center;verticalAlign=middle;size=0.0475;fontStyle=1;strokeWidth=3;fillColor=default;" vertex="1" parent="1">
          <mxGeometry x="450.25" y="-618" width="140" height="21" as="geometry" />
        </mxCell>
        <mxCell id="Mr7yQ8EFK5zv3oP72VbV-3" value="Food Interaction" style="shape=process;whiteSpace=wrap;align=center;verticalAlign=middle;size=0.0475;fontStyle=1;strokeWidth=3;fillColor=default;" vertex="1" parent="1">
          <mxGeometry x="450.25" y="-645" width="140" height="23" as="geometry" />
        </mxCell>
        <mxCell id="Mr7yQ8EFK5zv3oP72VbV-4" value="Product" style="shape=process;whiteSpace=wrap;align=center;verticalAlign=middle;size=0.0475;fontStyle=1;strokeWidth=3;fillColor=default;" vertex="1" parent="1">
          <mxGeometry x="450.25" y="-694.5" width="140" height="24" as="geometry" />
        </mxCell>
        <mxCell id="Mr7yQ8EFK5zv3oP72VbV-5" value="Price" style="shape=process;whiteSpace=wrap;align=center;verticalAlign=middle;size=0.0475;fontStyle=1;strokeWidth=3;fillColor=default;" vertex="1" parent="1">
          <mxGeometry x="450.25" y="-668.5" width="140" height="23" as="geometry" />
        </mxCell>
        <mxCell id="Mr7yQ8EFK5zv3oP72VbV-6" value="Drug" style="shape=process;whiteSpace=wrap;align=center;verticalAlign=middle;size=0.0475;fontStyle=1;strokeWidth=3;fillColor=none;" vertex="1" parent="1">
          <mxGeometry x="450.25" y="-720" width="140" height="25.5" as="geometry" />
        </mxCell>
        <mxCell id="Mr7yQ8EFK5zv3oP72VbV-9" value="To DrugDB&lt;div&gt;Datastore&lt;/div&gt;" style="text;html=1;align=center;verticalAlign=middle;resizable=0;points=[];autosize=1;strokeColor=none;fillColor=none;" vertex="1" parent="1">
          <mxGeometry x="534" y="-770" width="80" height="40" as="geometry" />
        </mxCell>
        <mxCell id="Mr7yQ8EFK5zv3oP72VbV-10" style="edgeStyle=orthogonalEdgeStyle;rounded=0;orthogonalLoop=1;jettySize=auto;html=1;exitX=0.5;exitY=1;exitDx=0;exitDy=0;entryX=0.5;entryY=0;entryDx=0;entryDy=0;" edge="1" parent="1" source="1bp27MTQ7zRGK-JUnbW6-33" target="Mr7yQ8EFK5zv3oP72VbV-6">
          <mxGeometry relative="1" as="geometry">
            <mxPoint x="335" y="-680" as="sourcePoint" />
            <mxPoint x="335" y="-610" as="targetPoint" />
          </mxGeometry>
        </mxCell>
        <mxCell id="Mr7yQ8EFK5zv3oP72VbV-13" style="edgeStyle=orthogonalEdgeStyle;rounded=0;orthogonalLoop=1;jettySize=auto;html=1;exitX=0;exitY=0.5;exitDx=0;exitDy=0;entryX=1;entryY=0.5;entryDx=0;entryDy=0;endArrow=none;endFill=0;" edge="1" parent="1" source="Mr7yQ8EFK5zv3oP72VbV-6">
          <mxGeometry relative="1" as="geometry">
            <mxPoint x="533" y="-705.27" as="sourcePoint" />
            <mxPoint x="399" y="-662.27" as="targetPoint" />
            <Array as="points">
              <mxPoint x="400" y="-707" />
              <mxPoint x="400" y="-662" />
            </Array>
          </mxGeometry>
        </mxCell>
        <mxCell id="Mr7yQ8EFK5zv3oP72VbV-14" style="edgeStyle=orthogonalEdgeStyle;rounded=0;orthogonalLoop=1;jettySize=auto;html=1;entryX=1;entryY=0.5;entryDx=0;entryDy=0;endArrow=none;endFill=0;" edge="1" parent="1">
          <mxGeometry relative="1" as="geometry">
            <mxPoint x="450" y="-610" as="sourcePoint" />
            <mxPoint x="399" y="-662.27" as="targetPoint" />
          </mxGeometry>
        </mxCell>
        <mxCell id="Mr7yQ8EFK5zv3oP72VbV-15" style="edgeStyle=orthogonalEdgeStyle;rounded=0;orthogonalLoop=1;jettySize=auto;html=1;entryX=1;entryY=0.5;entryDx=0;entryDy=0;endArrow=none;endFill=0;" edge="1" parent="1">
          <mxGeometry relative="1" as="geometry">
            <mxPoint x="450" y="-635" as="sourcePoint" />
            <mxPoint x="399" y="-662.27" as="targetPoint" />
          </mxGeometry>
        </mxCell>
        <mxCell id="Mr7yQ8EFK5zv3oP72VbV-16" style="edgeStyle=orthogonalEdgeStyle;rounded=0;orthogonalLoop=1;jettySize=auto;html=1;exitX=0;exitY=0.5;exitDx=0;exitDy=0;entryX=1.033;entryY=0.65;entryDx=0;entryDy=0;entryPerimeter=0;" edge="1" parent="1" source="Mr7yQ8EFK5zv3oP72VbV-4" target="1bp27MTQ7zRGK-JUnbW6-50">
          <mxGeometry relative="1" as="geometry">
            <mxPoint x="534" y="-684.27" as="sourcePoint" />
            <mxPoint x="399" y="-662.27" as="targetPoint" />
            <Array as="points">
              <mxPoint x="400" y="-682" />
              <mxPoint x="400" y="-581" />
            </Array>
          </mxGeometry>
        </mxCell>
        <mxCell id="Mr7yQ8EFK5zv3oP72VbV-17" style="edgeStyle=orthogonalEdgeStyle;rounded=0;orthogonalLoop=1;jettySize=auto;html=1;exitX=0;exitY=0.5;exitDx=0;exitDy=0;entryX=1;entryY=0.5;entryDx=0;entryDy=0;" edge="1" parent="1" source="Mr7yQ8EFK5zv3oP72VbV-5" target="1bp27MTQ7zRGK-JUnbW6-49">
          <mxGeometry relative="1" as="geometry">
            <mxPoint x="534" y="-658.27" as="sourcePoint" />
            <mxPoint x="351" y="-657" as="targetPoint" />
            <Array as="points">
              <mxPoint x="400" y="-657" />
              <mxPoint x="400" y="-720" />
            </Array>
          </mxGeometry>
        </mxCell>
        <mxCell id="Mr7yQ8EFK5zv3oP72VbV-18" value="&lt;br&gt;From&lt;div&gt;&amp;nbsp;&lt;div&gt;DrugDB&lt;/div&gt;&lt;div&gt;&lt;br&gt;&lt;div&gt;Datastore&lt;/div&gt;&lt;/div&gt;&lt;/div&gt;" style="text;html=1;align=center;verticalAlign=middle;resizable=0;points=[];autosize=1;strokeColor=none;fillColor=none;" vertex="1" parent="1">
          <mxGeometry x="383" y="-730" width="80" height="100" as="geometry" />
        </mxCell>
      </root>
    </mxGraphModel>
  </diagram>
</mxfile>
